# xmcd CD database file
# Copyright (C) 1997 Ti Kan
# 
# Track frame offsets:
#     150
#     15325
#     30522
#     48507
#     63817
#     79690
#     92717
#     110785
#     128082
#     142115
# 
# Disc length: 2137 seconds
# 
# Revision: 1
# Processed by: cddbd v1.4b41PL1 Copyright (c) Steve Scherf et al.
# Submitted via: DiscPlay 4.0.4
# 
DISCID=7c08570a
DTITLE=Celeste Krenz - Edge Of The Storm
DYEAR=1900
DGENRE=
TTITLE0=Track Nothin's Easy
TTITLE1=Baby Goodbye
TTITLE2=Katie and Eddie
TTITLE3=Charmaine
TTITLE4=Edge of the Storm
TTITLE5=Don't Say Goodnight
TTITLE6=Run to California
TTITLE7=Good Thing
TTITLE8=If I Gave My Heart To You
TTITLE9=No Man's Land
EXTD=
EXTT0=
EXTT1=
EXTT2=
EXTT3=
EXTT4=
EXTT5=
EXTT6=
EXTT7=
EXTT8=
EXTT9=
PLAYORDER=
